<svg data-v-423bf9ae="" xmlns="http://www.w3.org/2000/svg" viewBox="0 0 443 90" class="iconLeft"><!----><!----><defs data-v-423bf9ae=""><linearGradient data-v-423bf9ae="" gradientTransform="rotate(25)" id="041a50be-2e7f-409f-82aa-b019c4ed10c6" x1="0%" y1="0%" x2="100%" y2="0%"><stop data-v-423bf9ae="" offset="0%" style="stop-color: rgb(200, 200, 200); stop-opacity: 1;"></stop><stop data-v-423bf9ae="" offset="100%" style="stop-color: rgb(159, 195, 93); stop-opacity: 1;"></stop></linearGradient></defs><g data-v-423bf9ae="" id="91fed018-d9b0-4213-bb79-bcaa3b300903" fill="url(#041a50be-2e7f-409f-82aa-b019c4ed10c6)" transform="matrix(5.802707672119141,0,0,5.802707672119141,161.4739532470703,-6.876209735870361)"><path d="M7.64 5.66L7.64 5.66Q7.64 5.89 7.41 5.89L7.41 5.89L2.91 5.89L2.91 5.89Q2.83 5.89 2.83 5.98L2.83 5.98L2.83 8.12L2.83 8.12Q2.83 8.20 2.91 8.20L2.91 8.20L5.84 8.20L5.84 8.20Q6.08 8.20 6.08 8.44L6.08 8.44L6.08 9.66L6.08 9.66Q6.08 9.90 5.84 9.90L5.84 9.90L2.91 9.90L2.91 9.90Q2.83 9.90 2.83 9.98L2.83 9.98L2.83 13.76L2.83 13.76Q2.83 14 2.59 14L2.59 14L1.09 14L1.09 14Q0.85 14 0.85 13.76L0.85 13.76L0.85 4.44L0.85 4.44Q0.85 4.20 1.09 4.20L1.09 4.20L7.41 4.20L7.41 4.20Q7.64 4.20 7.64 4.44L7.64 4.44L7.64 5.66ZM8.83 14L8.83 14Q8.60 14 8.60 13.76L8.60 13.76L8.60 4.44L8.60 4.44Q8.60 4.20 8.83 4.20L8.83 4.20L10.33 4.20L10.33 4.20Q10.57 4.20 10.57 4.44L10.57 4.44L10.57 13.76L10.57 13.76Q10.57 14 10.33 14L10.33 14L8.83 14ZM14.94 6.69L14.94 6.69Q15.85 6.69 16.56 7.01L16.56 7.01L16.56 7.01Q17.28 7.32 17.68 7.87L17.68 7.87L17.68 7.87Q18.07 8.41 18.07 9.09L18.07 9.09L18.07 13.76L18.07 13.76Q18.07 14 17.84 14L17.84 14L16.34 14L16.34 14Q16.10 14 16.10 13.76L16.10 13.76L16.10 13.43L16.10 13.43Q16.10 13.37 16.07 13.36L16.07 13.36L16.07 13.36Q16.04 13.36 16.00 13.40L16.00 13.40L16.00 13.40Q15.36 14.11 14.08 14.11L14.08 14.11L14.08 14.11Q13.01 14.11 12.35 13.58L12.35 13.58L12.35 13.58Q11.69 13.05 11.69 12.01L11.69 12.01L11.69 12.01Q11.69 10.93 12.45 10.34L12.45 10.34L12.45 10.34Q13.20 9.74 14.60 9.74L14.60 9.74L16.02 9.74L16.02 9.74Q16.10 9.74 16.10 9.66L16.10 9.66L16.10 9.37L16.10 9.37Q16.10 8.90 15.81 8.64L15.81 8.64L15.81 8.64Q15.53 8.39 14.98 8.39L14.98 8.39L14.98 8.39Q14.56 8.39 14.29 8.53L14.29 8.53L14.29 8.53Q14.01 8.67 13.92 8.92L13.92 8.92L13.92 8.92Q13.83 9.11 13.64 9.10L13.64 9.10L12.08 8.90L12.08 8.90Q11.97 8.89 11.91 8.84L11.91 8.84L11.91 8.84Q11.84 8.79 11.86 8.71L11.86 8.71L11.86 8.71Q11.93 8.13 12.34 7.67L12.34 7.67L12.34 7.67Q12.75 7.21 13.43 6.95L13.43 6.95L13.43 6.95Q14.11 6.69 14.94 6.69L14.94 6.69ZM14.66 12.64L14.66 12.64Q15.26 12.64 15.68 12.32L15.68 12.32L15.68 12.32Q16.10 12.00 16.10 11.49L16.10 11.49L16.10 11.00L16.10 11.00Q16.10 10.92 16.02 10.92L16.02 10.92L15.02 10.92L15.02 10.92Q14.39 10.92 14.03 11.16L14.03 11.16L14.03 11.16Q13.66 11.40 13.66 11.83L13.66 11.83L13.66 11.83Q13.66 12.21 13.94 12.43L13.94 12.43L13.94 12.43Q14.21 12.64 14.66 12.64L14.66 12.64ZM23.58 8.15L23.58 8.15Q23.58 8.39 23.34 8.39L23.34 8.39L22.08 8.39L22.08 8.39Q21.99 8.39 21.99 8.47L21.99 8.47L21.99 11.37L21.99 11.37Q21.99 11.83 22.18 12.05L22.18 12.05L22.18 12.05Q22.37 12.26 22.79 12.26L22.79 12.26L23.18 12.26L23.18 12.26Q23.42 12.26 23.42 12.50L23.42 12.50L23.42 13.71L23.42 13.71Q23.42 13.93 23.18 13.96L23.18 13.96L23.18 13.96Q22.65 13.99 22.41 13.99L22.41 13.99L22.41 13.99Q21.25 13.99 20.68 13.59L20.68 13.59L20.68 13.59Q20.10 13.20 20.09 12.14L20.09 12.14L20.09 8.47L20.09 8.47Q20.09 8.39 20.01 8.39L20.01 8.39L19.29 8.39L19.29 8.39Q19.05 8.39 19.05 8.15L19.05 8.15L19.05 7.04L19.05 7.04Q19.05 6.80 19.29 6.80L19.29 6.80L20.01 6.80L20.01 6.80Q20.09 6.80 20.09 6.72L20.09 6.72L20.09 5.14L20.09 5.14Q20.09 4.90 20.33 4.90L20.33 4.90L21.76 4.90L21.76 4.90Q21.99 4.90 21.99 5.14L21.99 5.14L21.99 6.72L21.99 6.72Q21.99 6.80 22.08 6.80L22.08 6.80L23.34 6.80L23.34 6.80Q23.58 6.80 23.58 7.04L23.58 7.04L23.58 8.15ZM31.70 5.66L31.70 5.66Q31.70 5.89 31.46 5.89L31.46 5.89L26.95 5.89L26.95 5.89Q26.87 5.89 26.87 5.98L26.87 5.98L26.87 8.12L26.87 8.12Q26.87 8.20 26.95 8.20L26.95 8.20L29.88 8.20L29.88 8.20Q30.11 8.20 30.11 8.44L30.11 8.44L30.11 9.66L30.11 9.66Q30.11 9.90 29.88 9.90L29.88 9.90L26.95 9.90L26.95 9.90Q26.87 9.90 26.87 9.98L26.87 9.98L26.87 12.22L26.87 12.22Q26.87 12.31 26.95 12.31L26.95 12.31L31.46 12.31L31.46 12.31Q31.70 12.31 31.70 12.54L31.70 12.54L31.70 13.76L31.70 13.76Q31.70 14 31.46 14L31.46 14L25.13 14L25.13 14Q24.89 14 24.89 13.76L24.89 13.76L24.89 4.44L24.89 4.44Q24.89 4.20 25.13 4.20L25.13 4.20L31.46 4.20L31.46 4.20Q31.70 4.20 31.70 4.44L31.70 4.44L31.70 5.66ZM37.28 4.44L37.28 4.44Q37.28 4.20 37.52 4.20L37.52 4.20L39.02 4.20L39.02 4.20Q39.26 4.20 39.26 4.44L39.26 4.44L39.26 13.76L39.26 13.76Q39.26 14 39.02 14L39.02 14L37.52 14L37.52 14Q37.28 14 37.28 13.76L37.28 13.76L37.28 13.38L37.28 13.38Q37.28 13.33 37.25 13.32L37.25 13.32L37.25 13.32Q37.21 13.31 37.18 13.36L37.18 13.36L37.18 13.36Q36.61 14.11 35.59 14.11L35.59 14.11L35.59 14.11Q34.64 14.11 33.90 13.54L33.90 13.54L33.90 13.54Q33.17 12.98 32.89 12.05L32.89 12.05L32.89 12.05Q32.65 11.38 32.65 10.37L32.65 10.37L32.65 10.37Q32.65 9.34 32.91 8.64L32.91 8.64L32.91 8.64Q33.22 7.74 33.93 7.21L33.93 7.21L33.93 7.21Q34.64 6.68 35.59 6.68L35.59 6.68L35.59 6.68Q36.62 6.68 37.18 7.36L37.18 7.36L37.18 7.36Q37.21 7.41 37.25 7.39L37.25 7.39L37.25 7.39Q37.28 7.38 37.28 7.32L37.28 7.32L37.28 4.44ZM36.99 11.79L36.99 11.79Q37.27 11.27 37.27 10.40L37.27 10.40L37.27 10.40Q37.27 9.48 36.97 8.96L36.97 8.96L36.97 8.96Q36.62 8.41 36.04 8.41L36.04 8.41L36.04 8.41Q35.39 8.41 35.06 8.95L35.06 8.95L35.06 8.95Q34.72 9.51 34.72 10.42L34.72 10.42L34.72 10.42Q34.72 11.24 35.01 11.79L35.01 11.79L35.01 11.79Q35.35 12.39 36.04 12.39L36.04 12.39L36.04 12.39Q36.65 12.39 36.99 11.79L36.99 11.79ZM41.83 6.12L41.83 6.12Q41.30 6.12 40.96 5.79L40.96 5.79L40.96 5.79Q40.63 5.46 40.63 4.94L40.63 4.94L40.63 4.94Q40.63 4.42 40.96 4.10L40.96 4.10L40.96 4.10Q41.30 3.77 41.83 3.77L41.83 3.77L41.83 3.77Q42.38 3.77 42.71 4.09L42.71 4.09L42.71 4.09Q43.04 4.41 43.04 4.94L43.04 4.94L43.04 4.94Q43.04 5.47 42.71 5.80L42.71 5.80L42.71 5.80Q42.38 6.12 41.83 6.12L41.83 6.12ZM41.09 14L41.09 14Q40.85 14 40.85 13.76L40.85 13.76L40.85 7.04L40.85 7.04Q40.85 6.80 41.09 6.80L41.09 6.80L42.59 6.80L42.59 6.80Q42.83 6.80 42.83 7.04L42.83 7.04L42.83 13.76L42.83 13.76Q42.83 14 42.59 14L42.59 14L41.09 14ZM48.51 8.15L48.51 8.15Q48.51 8.39 48.27 8.39L48.27 8.39L47.01 8.39L47.01 8.39Q46.93 8.39 46.93 8.47L46.93 8.47L46.93 11.37L46.93 11.37Q46.93 11.83 47.12 12.05L47.12 12.05L47.12 12.05Q47.31 12.26 47.73 12.26L47.73 12.26L48.12 12.26L48.12 12.26Q48.36 12.26 48.36 12.50L48.36 12.50L48.36 13.71L48.36 13.71Q48.36 13.93 48.12 13.96L48.12 13.96L48.12 13.96Q47.59 13.99 47.35 13.99L47.35 13.99L47.35 13.99Q46.19 13.99 45.61 13.59L45.61 13.59L45.61 13.59Q45.04 13.20 45.02 12.14L45.02 12.14L45.02 8.47L45.02 8.47Q45.02 8.39 44.94 8.39L44.94 8.39L44.23 8.39L44.23 8.39Q43.99 8.39 43.99 8.15L43.99 8.15L43.99 7.04L43.99 7.04Q43.99 6.80 44.23 6.80L44.23 6.80L44.94 6.80L44.94 6.80Q45.02 6.80 45.02 6.72L45.02 6.72L45.02 5.14L45.02 5.14Q45.02 4.90 45.26 4.90L45.26 4.90L46.69 4.90L46.69 4.90Q46.93 4.90 46.93 5.14L46.93 5.14L46.93 6.72L46.93 6.72Q46.93 6.80 47.01 6.80L47.01 6.80L48.27 6.80L48.27 6.80Q48.51 6.80 48.51 7.04L48.51 7.04L48.51 8.15Z"></path></g><defs data-v-423bf9ae=""><linearGradient data-v-423bf9ae="" gradientTransform="rotate(25)" id="74afc613-ac71-41e2-aba1-a15bb7cbdcc1" x1="0%" y1="0%" x2="100%" y2="0%"><stop data-v-423bf9ae="" offset="0%" style="stop-color: rgb(159, 195, 93); stop-opacity: 1;"></stop><stop data-v-423bf9ae="" offset="100%" style="stop-color: rgb(200, 200, 200); stop-opacity: 1;"></stop></linearGradient></defs><g data-v-423bf9ae="" id="d7c43c0e-cde7-409c-bca4-1b502e5b38e4" transform="matrix(1.5410959720611572,0,0,1.5410959720611572,-3.555880308151245,-31.25479507446289)" stroke="none" fill="url(#74afc613-ac71-41e2-aba1-a15bb7cbdcc1)"><switch><g><path d="M15.6 39.8h4.8c.6 0 1.1-.5 1.1-1.1v-4.8c0-.6-.5-1.1-1.1-1.1h-4.8c-.6 0-1.1.5-1.1 1.1v4.8c-.1.6.4 1.1 1.1 1.1zM69 33.9c0-.6-.5-1.1-1.1-1.1H40.4c-.6 0-1.1.5-1.1 1.1v4.8c0 .6.5 1.1 1.1 1.1h27.5c.6 0 1.1-.5 1.1-1.1v-4.8zM67.9 45.7H40.4c-.6 0-1.1.5-1.1 1.1v4.8c0 .6.5 1.1 1.1 1.1h27.5c.6 0 1.1-.5 1.1-1.1v-4.8c0-.6-.5-1.1-1.1-1.1zM39.3 59.8v4.8c0 .6.5 1.2 1.1 1.2h21.4c.2-1.9 1-3.7 2.2-5.2l1.6-1.8H40.4c-.6-.1-1.1.4-1.1 1zM15.6 52.8h4.8c.6 0 1.1-.5 1.1-1.1v-4.8c0-.6-.5-1.1-1.1-1.1h-4.8c-.6 0-1.1.5-1.1 1.1v4.8c-.1.6.4 1.1 1.1 1.1zM15.6 65.8h4.8c.6 0 1.1-.5 1.1-1.1v-4.8c0-.6-.5-1.1-1.1-1.1h-4.8c-.6 0-1.1.5-1.1 1.1v4.8c-.1.6.4 1.1 1.1 1.1z"></path><path d="M61 74.1l.2-2.6H33.5V26.8H75v20.8l3.7-4.4c.7-.8 1.4-1.5 2.3-2V24.9c0-2.3-1.8-4.1-4.1-4.1H6.7c-2.3 0-4.2 1.8-4.2 4.1v48.5c0 2.3 1.9 4.1 4.2 4.1h54.7c-.4-1.1-.5-2.2-.4-3.4zm-33.5-2.6h-19V26.8h19v44.7z"></path><path d="M96 52.2l-7.1-6c-.9-.7-1.9-1.1-3.1-1-1.1.1-2.1.6-2.9 1.5L68.3 64.2c-.6.7-.9 1.5-1 2.3l-.7 8.1c-.1 1.4.4 2.7 1.5 3.6.8.6 1.7 1 2.7 1 .4 0 .7 0 1.1-.1l7.9-2.1c.8-.2 1.6-.7 2.1-1.4l14.6-17.4c1.5-1.8 1.3-4.5-.5-6zM77.4 70.9L73.2 72l.4-4.3 12.8-15.2 3.8 3.2-12.8 15.2z"></path></g></switch></g><!----></svg>